<?xml version="1.0" encoding="utf-8"?>
<!-- Generator: Adobe Illustrator 24.3.0, SVG Export Plug-In . SVG Version: 6.00 Build 0)  -->
<svg version="1.1" id="Layer_1" xmlns="http://www.w3.org/2000/svg" xmlns:xlink="http://www.w3.org/1999/xlink" x="0px" y="0px"
	 viewBox="0 0 64 64" style="enable-background:new 0 0 64 64;" xml:space="preserve">
<style type="text/css">
	.st0{fill:#262A30;}
	.st1{fill:#A72519;}
	.st2{fill:#FBF9FA;}
</style>
<g>
	<g>
		<rect x="0.5" y="0.5" class="st0" width="63" height="63"/>
		<rect x="1.9" y="1.6" class="st1" width="60.2" height="49"/>
	</g>
	<g>
		<path class="st2" d="M38.3,27c0.1,1,0.1,2-0.5,2.9c-0.6,0.9-1.4,1.3-2.4,1c-0.2-0.1-0.4-0.1-0.7-0.1c0.3,0.5,0.6,0.4,0.9,0.2
			c0.2,0.3-0.1,0.4-0.2,0.5c-0.2,0.2-0.5,0.3-0.8,0.3c-0.9-0.2-1.1,0.5-1.6,1c0.3,0.2,0.5-0.1,0.9-0.1c-0.7,0.6-1.4,0.8-2.1,0.7
			c-0.4-0.1-0.7,0-1,0.2c-0.7,0.5-1.5,0.7-2.3,0.7c-0.2,0-0.4,0.1-0.6,0.2c-0.4,0.2-1,0.4-1.4,0.1c-0.2-0.1-0.3-0.1-0.4,0
			c-0.5,0.1-1.1-0.1-1.6-0.4c1.1-0.1,1.4-0.8,1.6-1.7c-0.4-0.2-0.5,0.3-0.8,0.4c-0.4,0.2-0.8,0.7-1,1c-0.3,0.4-0.2,0.8,0.2,1.1
			c0.2,0.1,0.3,0.2,0.3,0.4c-0.3,0.2-0.5-0.1-0.6-0.2c-0.5-0.5-0.7-1.3-0.5-1.9c0.1-0.5,0.2-1,0.7-1.4c0.1-0.1,0.2-0.3,0.1-0.4
			c-0.2-0.2-0.4-0.1-0.7,0.1c0-0.2,0-0.3-0.1-0.4c-0.3,0-0.5,0.1-0.8,0c0.4-0.5,0.4-0.5-0.4-1.6c-0.7,0.1-0.9,0.8-1.5,1
			c-0.7,0.4-0.9,0.8-0.7,1.6c0.4,1,0.4,2.1,0.5,3.2c0.1,1.5-0.3,3-1,4.3c-0.9,1.6-2.1,3.1-3.3,4.5c-0.1,0.2-0.2,0.2-0.2,0.2l0,0
			c0.4-0.8,1-1.4,1.5-2.2c1-1.4,2-2.8,2.4-4.5c0.2-0.9,0.2-1.8,0-2.7s-0.4-1.8-0.7-2.7c-0.1-0.2-0.1-0.4-0.3-0.5
			c-0.6,0.4-1.3,0.5-2,0.8c0.2,0.6,0.5,0.5,1,0.2c-0.2,0.4-0.5,0.7-0.5,1.1c-0.7,0.2-1.3,0.4-1.9-0.1c0,0.5,0.2,0.8,0.4,1.1
			c0.3-0.1,0.5-0.1,0.8-0.1c0,0.4-0.5,0.3-0.7,0.7c-0.4-0.3-0.9-0.5-1.2-1c-0.3,0.2-0.3,0.5-0.4,0.7c-0.5,0.9-1,1-2,0.8
			c-0.2-0.1-0.4,0-0.7,0.1c0.1-0.6,0.1-1.1,0-1.8c-0.4,0.6-0.7,1.4-1.5,1.7c-0.1-0.3,0.2-0.4,0.3-0.5c0.2-0.2,0.4-0.5,0.5-0.8
			c0.1-0.2,0.2-0.5-0.1-0.7c-0.5-0.3-0.9-0.8-1.4-1.3c-0.2,0.6-0.5,1-0.9,1.3c-0.5,0.3-1,0.2-1.5,0.3c0.7-0.4,1-0.9,1.1-1.8
			c-0.9,0.4-1.6,0.4-2.4-0.1c0.4-0.4,0.9-0.2,1.3-0.4s0.4-0.5,0.3-0.8c-0.4-0.6-0.4-1.4-1.3-1.7c-0.2-0.1-0.2,0.3-0.5,0.3
			c-0.1-0.1-0.1-0.1-0.2-0.1c0.4-0.5,0.3-0.8-0.2-1.2c0.2-0.5,0.2-1.1,0.7-1.5c0.2-0.1,0.2-0.3-0.1-0.4c-0.2-0.1-0.1-0.3-0.1-0.4
			c0.2,0,0.2,0.3,0.4,0.3c0.1-0.2,0.4-0.4,0.4-0.7c-0.5-0.3-1.3-0.1-1.8-0.4c-0.1-0.2,0.2-0.4,0.1-0.7c0.3,0.2,0.4,0.2,0.5,0.3
			C7,24,6.6,23,6.7,22c-0.5,0.4-0.9,1-0.9,1.7C5.8,22,7.1,21,8.3,20c-0.5-1-0.7-2.2-0.1-3.3c0.3-0.6,0.7-1.1,1.2-1.5
			c0.7-0.5,1.3-1.1,1.6-1.9c0.7-1.3,1.9-2.1,3.1-2.7c2.6-1.1,5.4-1.6,8.3-1.8c1.2-0.1,2.4-0.1,3.6,0.1C27.4,9,28.7,9.3,30,9.9
			c0.7,0.3,1.3,0.6,1.9,1c0.8,0.5,1.3,1.3,1.7,2.1c0.1,0.2,0.3,0.4,0.5,0.6c0.6-0.5,1.2-1,1.9-1.5c1.6-1.2,3.4-2,5.2-2.7
			c1.5-0.5,3.1-1,4.7-1.8c0.7-0.3,1.5-0.5,2.3-0.8c0.7-0.2,1.4-0.5,1.3-1.4c0.1,0,0.2,0,0.2,0c0.8,1.1,1.7,2,2.2,3.2
			c0.7,1.6-0.3,2.8-1.8,3.1c-1.1,0.2-2.3,0.1-3.4-0.1c-1.3-0.3-2.6-0.3-3.8,0.6c-0.3,0.2-0.3,0.4-0.2,0.7c0.3,0.4,0.5,0.8,0.7,1.2
			c0.4,0.8,0.5,1.6,0.5,2.5c0,0.3-0.1,0.6,0.2,0.8c0.3,0.1,0.4-0.3,0.7-0.4c0.1,0,0.1-0.1,0.2-0.2c0.1,0.8-0.3,1.5-0.5,2
			c-0.6,1.3-0.1,2.2,0.5,3.1c1,1.6,2.2,3,3.9,3.9c0.8,0.4,1.5,0.7,2.5,0.7c-0.4-0.3-0.8-0.6-1.2-1.1c0.8,0.4,1.5,0.3,2.1-0.2
			c0.6-0.4,0.8-1.1,1.5-1.6c-0.8-0.3-0.9-0.3-0.8-1.2c0.2,0.2,0.1,0.5,0.4,0.7c0.3,0,0.6-0.3,1-0.4c0.4-0.1,0.7,0,1.1,0
			c-0.4,0.3-0.9,0.3-1.3,0.6c0.2,0.4,0.6,0.1,0.8,0.4c0.3,0.5,0.2,1-0.1,1.4c-0.2,0.4-0.6,0.7-1,1c0.4,0.2,0.8,0.2,1.1,0.3
			c0.1,0.2,0.1,0.3-0.1,0.4c-0.2,0.3-0.1,0.4,0.2,0.5c1.3,0.7,2,1.8,2.6,3.1c0.5,1.1,0.7,2.4,0.4,3.6c-0.1,0.6-0.2,1.3-0.7,1.9
			c-0.2-0.2-0.3-0.4-0.5-0.7c-0.3-0.3-0.7-0.6-1.2-0.6s-1-0.2-1.5-0.4C54.1,34,54,34,53.8,34.2c-0.2,0.3-0.6,0.2-0.9,0.2
			c-2.1-0.4-3.8-1.5-5.3-3.1c-1.3-1.4-2.1-3-2.7-4.8c-0.4-1.2-0.9-2.4-1.3-3.6c-0.5-1.6-2.5-2.9-4.1-2.3c-0.8,0.3-1.2,1-1.4,1.8"/>
		<path class="st1" d="M13.4,28.7c-0.1,0.2-0.3,0.3-0.4,0.5c-0.1,0.3,0,0.5,0.3,0.5c0.7-0.1,0.8,0.4,0.8,0.9c0,0.3,0,0.5,0,0.8
			c0.1,0.5,0.4,0.9,0.9,0.9c1.3,0.1,2.6-0.2,3.8-0.7c0.6-0.3,1.1-0.7,1.6-1c0.5-0.3,1-0.7,1.5-1.1c0.1-0.1,0.2-0.3,0-0.4
			c-0.2,0.1-0.5,0.3-0.6-0.1c-0.2-0.8-0.6-1.6-0.4-2.5c0.2-1,0.3-2,0.4-3c-0.5,0.5-0.2,1.8-1.4,1.9c0-0.2,0.2-0.3,0.2-0.5
			c0.5-0.9,0.9-1.8,0.5-2.8c-0.5-1.4-0.9-2.9-2.1-3.9c-0.2-0.2-0.4-0.5-0.5-0.8c-0.2-0.7-0.7-1.2-1.1-1.7c-0.4-0.5-0.7-1-0.9-1.7
			c-0.1-0.1,0-0.3-0.3-0.3c-0.8,0.8-1.6,1.4-2.7,1.9C13,15.8,13,15.8,12.9,16c-0.9,1.6-1.1,3.3-0.4,5c0.4,1,0.9,2.1,0,3.1
			c-0.2,0.3-0.4,0.5-0.6,0.7c-0.6,0.7-0.6,0.8,0.1,1.3c0.2,0.2,0.4,0.4,0.6,0.4c0.3,0.1,0.3,0.3,0.2,0.5
			C12.4,28.1,12.5,28.2,13.4,28.7z"/>
		<path class="st2" d="M13,35.6c0.9-0.1,1.4-0.4,1.5-1c0.1-0.6-0.3-1.3-0.9-1.6C13.7,33.9,13.5,34.7,13,35.6z"/>
		<path class="st2" d="M50.5,11.1c0.8-0.1,1.1-0.5,1.2-1.1c0.1-0.5-0.1-1.1-0.5-1.5C51.2,9.4,51,10.3,50.5,11.1z"/>
		<path class="st1" d="M20,19.9c0.7,1.1,1,2.2,1,3.4C21.3,22,20.8,20.2,20,19.9z"/>
		<path class="st1" d="M29.2,32c-0.3,0.7-0.8,1.1-1,1.8c0.5-0.1,0.8-0.4,1.1-0.7C29.9,32.5,29.9,32.5,29.2,32z"/>
		<path class="st2" d="M31.1,11c0.5,0.4,0.8,1,1.7,1.2C32.2,11.6,31.8,11.1,31.1,11z"/>
		<path class="st2" d="M29.5,33.9c0.8-0.1,1.1-0.3,1.5-0.9C30.2,33,29.9,33.5,29.5,33.9z"/>
		<path class="st1" d="M24.5,33c0.4-0.3,0.8-0.5,0.5-1.1C24.6,32.3,24.5,32.6,24.5,33z"/>
		<path class="st2" d="M51.1,8.3C51,8.4,51,8.4,51,8.5c0,0,0.1,0,0.1,0C51.3,8.4,51.2,8.3,51.1,8.3z"/>
		<path class="st2" d="M45.9,40c-0.3-1.1-0.1-2.9,0.7-5.1"/>
		<path class="st2" d="M41.6,21.3c-0.3,0-0.5,0-0.7,0c-1-0.1-1.6,0.5-1.8,1.5c-0.2,1.6,0.8,2.4,1.8,3.3c0.4,0.4,1.1,0.5,1.5,1
			c0.1,0.1,0.2,0.1,0.1,0.3c-0.6-0.2-1.1-0.3-1.6-0.7c-0.5-0.4-1-0.9-1.5-1.3c-1-0.9-1.1-2.5-0.3-3.6C39.7,20.9,40.7,20.8,41.6,21.3
			z"/>
		<path class="st2" d="M32,44.3c-0.5,0.2-0.5-0.2-0.5-0.5c-0.3-1.3-0.8-2.5-1.5-3.6c-0.4-0.7-1-1.3-1.5-2c-0.3-0.3-0.4-0.7-0.4-0.9
			C29.7,39.3,31.6,41.4,32,44.3z"/>
		<path class="st2" d="M51.3,16.9c-0.5-0.3-0.9-0.3-1.4,0.2c-0.3,0.3-0.8,0.5-1.3,0.8"/>
	</g>
	<g>
		<path class="st2" d="M16.8,56.1c0,1.3,0,2.5,0,3.7c-0.5,0-0.9,0-1.4,0c0-1,0-2.1,0-3.1c0-1,0-2,0-3.1c0.4,0,0.8-0.1,1.1,0
			c0.4,0.1,0.5,0.4,0.8,0.7c0.7,0.9,1.3,1.8,2,2.6c0.1,0.1,0.1,0.1,0.2,0.2c0-1.2,0-2.3,0-3.4c0.5,0,0.9,0,1.4,0c0,2.1,0,4.1,0,6.2
			c-0.8,0.2-1.3,0.1-1.8-0.7C18.5,58.1,17.7,57.1,16.8,56.1z"/>
		<path class="st2" d="M43.9,53.6c1.6,0,3.1,0,4.7,0c0,0.4,0,0.8,0,1.3c-1,0-2.1,0-3.2,0c0,0.4,0,0.8,0,1.2c0.9,0,1.9,0,2.8,0
			c0,0.4,0,0.9,0,1.3c-0.9,0-1.9,0-2.8,0c0,0.4,0,0.7,0,1.1c1.1,0,2.2,0,3.3,0c0,0.4,0,0.9,0,1.3c-1.6,0-3.1,0-4.8,0
			c0-1,0-2.1,0-3.1C43.9,55.7,43.9,54.7,43.9,53.6z"/>
		<path class="st2" d="M4.3,53.6c0.5,0,1,0,1.6,0c0,1.3,0,2.5,0,3.7c0,0.7,0.5,1.3,1.1,1.4c0.7,0.1,1.2-0.5,1.2-1.3
			c0-1.2,0-2.4,0-3.7c0.5,0,1,0,1.6,0c-0.1,1.5,0.2,3.1-0.2,4.5c-0.2,1-1,1.6-2,1.8c-1,0.1-2,0-2.8-0.9c-0.4-0.5-0.5-1.1-0.5-1.8
			C4.3,56.1,4.3,54.8,4.3,53.6z"/>
		<path class="st2" d="M53.7,59.8c0.5-1,1.2-1.8,1.8-2.6c0.2-0.4,0.3-0.6,0.1-1c-0.5-0.7-0.9-1.4-1.4-2.1c-0.1-0.2-0.2-0.3-0.3-0.5
			c0.5,0,1,0,1.5,0c0.2,0,0.3,0.1,0.4,0.2c0.3,0.5,0.7,1,1,1.6c0.4-0.3,0.7-0.8,0.9-1.2c0.3-0.5,0.7-0.7,1.2-0.7
			c0.3,0.1,0.5,0,0.8,0c-0.1,0.5-0.4,0.9-0.7,1.2c-0.3,0.5-0.7,1-1,1.5c-0.3,0.3-0.2,0.5,0,0.8c0.5,0.8,1,1.5,1.6,2.3
			c0.1,0.1,0.2,0.3,0.2,0.4c-0.1,0-0.1,0.1-0.1,0.1c-1.8,0.1-1.8,0.1-2.9-2c-0.3,0.5-0.7,0.9-1,1.5c-0.2,0.4-0.6,0.6-1,0.5
			C54.3,59.8,54,59.8,53.7,59.8z"/>
		<path class="st2" d="M33.5,58.9c0.3-0.4,0.5-0.7,0.8-1c0.5,0.2,0.9,0.6,1.4,0.7c0.1,0,0.2,0.1,0.3,0.1c0.4,0.1,0.9-0.1,1-0.5
			c0.1-0.4-0.4-0.5-0.7-0.6c-0.5-0.2-1.1-0.4-1.7-0.6c-0.5-0.2-0.8-0.7-0.8-1.3c-0.1-0.7,0.1-1.3,0.7-1.6c1-0.7,2.8-0.4,3.7,0.2
			c0.2,0.2,0.2,0.3,0.1,0.5c-0.1,0.2-0.2,0.3-0.3,0.4c-0.2,0.3-0.4,0.5-0.8,0.2c-0.4-0.3-0.9-0.3-1.5-0.3c-0.2,0-0.4,0.2-0.4,0.3
			c-0.1,0.2,0.1,0.4,0.2,0.4c0.4,0.2,0.8,0.3,1.2,0.4c0.3,0.1,0.5,0.2,0.8,0.3c0.9,0.4,1.1,1,1,2c-0.1,0.6-0.6,1.3-1.3,1.5
			C35.8,60.2,34.6,59.9,33.5,58.9z"/>
		<path class="st2" d="M28.2,59.8c-0.5,0-1,0-1.5,0c0-2.1,0-4.1,0-6.2c0.5,0,1,0,1.5,0C28.2,55.7,28.2,57.7,28.2,59.8z"/>
	</g>
</g>
</svg>
