<svg xmlns="http://www.w3.org/2000/svg" width="69.6" height="51.9" viewBox="0 0 69.6 51.9"><path d="M35.1 0c9 0 18-.1 27 0 5.2.1 7.9 2.9 7.3 7.8-.2 1.6-1.2 3.6-2.5 4.5-9 6.8-18.2 13.5-27.3 20.2-3 2.2-6.1 2.4-9.2.2C20.9 25.8 11.6 18.9 2.2 12-.7 9.9-.1 6.9.6 4.3 1.3 1.7 3.4.2 6.2.1 10.5 0 14.8 0 19.1 0h16z"/><path d="M.5 16.9c7.9 5.8 15.1 10.9 22.1 16.3 10.4 8 13.6 8.1 24.2.2 6.5-4.9 13.1-9.7 19.7-14.5.6-.5 1.4-.8 2.5-1.5.2 1.5.6 2.6.6 3.6 0 7.5.1 15 0 22.5-.1 6.5-2 8.4-8.4 8.4H8.3c-6.1 0-8-1.9-8.1-8.1-.1-7.7 0-15.3 0-23 0-.9.1-1.9.3-3.9z"/></svg>