<?xml version="1.0" encoding="utf-8"?>
<!-- Generator: Adobe Illustrator 23.0.0, SVG Export Plug-In . SVG Version: 6.00 Build 0)  -->
<svg version="1.1" id="Layer_1" xmlns="http://www.w3.org/2000/svg" xmlns:xlink="http://www.w3.org/1999/xlink" x="0px" y="0px"
	 viewBox="0 0 414.4 117" style="enable-background:new 0 0 414.4 117;" xml:space="preserve">
<style type="text/css">
	.st0{fill:none;}
	.st1{fill-rule:evenodd;clip-rule:evenodd;}
	.st2{fill:#FBF9FA;}
</style>
<path class="st0" d="M0,0h414.4v117H0V0z"/>
<path class="st1" d="M157.3,87.7h-12.4V70.3h-5v39.8h5V92.7h12.4v17.4h5V70.3h-5L157.3,87.7L157.3,87.7z M179.5,75.1
	c1.6,0,3.2,0.6,4.4,1.8c1.2,1.1,1.8,2.7,1.8,4.3v9.9h-12.4v-9.9C173.3,77.8,176.1,75.1,179.5,75.1L179.5,75.1z M179.5,70.1
	c-6.1-0.1-11.1,4.9-11.2,11c0,0.1,0,0.1,0,0.2v28.9h5v-14h12.4v14h5V81.2c0-6.1-4.9-11.1-11-11.1C179.7,70.1,179.6,70.1,179.5,70.1
	L179.5,70.1z M196.8,110.1h5V70.3h-5C196.8,70.3,196.8,110.1,196.8,110.1z M212,75.3h4.3c1.6,0,3.2,0.7,4.4,1.8
	c2.4,2.5,2.4,6.4,0,8.9c-1.2,1.2-2.8,1.9-4.5,1.9H212L212,75.3L212,75.3z M227.6,81.6c0-6.1-4.8-11.2-11-11.3h-9.6v39.8h5V92.9h4.7
	l7.8,17.2h5.6l-8.6-18.5C225.3,89.7,227.6,85.9,227.6,81.6z M258.1,75.2h6.2c1.6,0,3.2,0.6,4.4,1.8c1.2,1.2,1.8,2.8,1.8,4.4v17.5
	c0,1.7-0.6,3.2-1.8,4.4c-1.2,1.2-2.7,1.9-4.4,1.9h-6.2V75.2z M264.3,70.2h-11.2v39.9h11.2c2.9,0,5.7-1.2,7.9-3.3
	c2.1-2.1,3.3-4.9,3.4-7.8V81.4c0-2.9-1.2-5.8-3.3-7.9C270.1,71.4,267.3,70.2,264.3,70.2L264.3,70.2z M291.8,75.1
	c1.7,0,3.2,0.6,4.4,1.8c0.9,0.9,1.9,2.4,1.9,4.4v3h-12.5v-3c0-1.7,0.7-3.3,1.9-4.4C288.6,75.7,290.2,75.1,291.8,75.1z M291.8,70.1
	c-6.2,0-11.2,4.9-11.2,11.1c0,0,0,0.1,0,0.1v18c0,6.2,4.9,11.2,11.1,11.2c0,0,0.1,0,0.1,0c6.2,0,11.2-4.9,11.2-11.1c0,0,0-0.1,0-0.1
	v-1h-5v1c0,1.6-0.7,3.2-1.9,4.4c-1.1,1.2-2.7,1.9-4.4,1.8c-1.7,0-3.3-0.7-4.4-1.9c-1.2-1.2-1.9-2.7-1.9-4.4v-10h17.5v-8
	c0-3-1.2-5.8-3.3-8C297.7,71.2,294.8,70,291.8,70.1L291.8,70.1z M321.9,87.9c-1.4-0.6-2.8-1.3-4.1-2.1c-2.9-1.6-4-3-4-5v-0.3
	c0-3.3,2.3-5.6,5.5-5.6s5.3,2.2,5.3,5.5v0.7h5.1v-0.7c0-5.8-4.7-10.5-10.5-10.4c-2.8,0-5.4,1.1-7.3,3c-2,2-3.1,4.7-3.1,7.5v0.3
	c0,1.9,0.5,3.5,1.4,4.8c1.5,2.1,4,3.8,7.6,5.4c1.5,0.6,2.8,1.3,4,2.1c2.8,1.7,4,3.5,4,5.9c0,1.7-0.7,3.2-2,4.5c-2.5,2.5-6.5,2.5-9,0
	c-1.2-1.2-1.9-2.8-1.9-4.4v-1h-5v1c0,3,1.2,5.9,3.3,8c2.1,2.2,5,3.4,8,3.4c3,0,6-1.2,8.2-3.3c2.2-2.1,3.5-5,3.5-8
	c0-2-0.5-3.8-1.4-5.3C327.9,91.5,325.4,89.6,321.9,87.9L321.9,87.9z M335.7,110.1h5V70.3h-5C335.7,70.3,335.7,110.1,335.7,110.1z
	 M357,70.1c-6.2,0-11.2,4.9-11.2,11.1c0,0,0,0.1,0,0.1v18c0,6.2,4.9,11.2,11.1,11.2c0,0,0.1,0,0.1,0c6.2,0,11.2-4.9,11.2-11.1
	c0,0,0-0.1,0-0.1v-8h-12v5h7.1v3c0,1.6-0.7,3.2-1.9,4.4c-1.2,1.2-2.7,1.9-4.4,1.8c-1.7,0-3.3-0.7-4.4-1.9c-1.2-1.1-1.9-2.7-1.9-4.4
	v-18c0-1.7,0.6-3.2,1.9-4.4c1.2-1.2,2.7-1.8,4.4-1.8c1.7,0,3.2,0.6,4.4,1.8c0.9,0.9,1.9,2.4,1.9,4.4v1h5v-1
	c0-6.2-4.9-11.2-11.1-11.2C357.1,70.1,357.1,70.1,357,70.1L357,70.1z M392.6,73.2c-2.1-2.1-5-3.3-8-3.3c-6.2,0-11.2,5-11.2,11.2
	c0,0,0,0,0,0.1v29h5v-29c0-3.5,2.8-6.3,6.3-6.3c1.6,0,3.2,0.6,4.4,1.8c1.2,1.2,1.9,2.8,1.9,4.5v29h5v-29
	C395.9,78.2,394.7,75.3,392.6,73.2L392.6,73.2z M400.7,54H136.9v-2h263.8V54z M169.1,37h-2.7l-25.7-26.2V37h-2.7V7h2.7l25.7,26.3V7
	h2.7V37z M189.6,7v30h-2.8V7H189.6z M234.5,15.7c-0.3-0.4-1.1-2-2.3-3.2c-3.5-3.6-8.4-3.8-9.9-3.8c-1.7,0-6.5,0.3-10.2,4
	c-3.3,3.4-3.6,7.7-3.6,9.3c0,1.7,0.3,5.8,3.7,9.2c3.6,3.6,8.4,3.9,10.1,3.9c2,0,7.1-0.3,11-4.7c0.6-0.7,1-1.2,1.9-2.7l2.6,1.2
	c-0.7,1.2-1.9,3.4-4.7,5.4c-1.9,1.4-5.3,3.4-11,3.4c-5.5,0-8.6-1.7-10.5-3.1c-4.1-3-6.4-7.8-6.4-12.8c0-3.6,1.2-7.1,3.5-9.8
	c4.6-5.5,11-6,13.4-6c1.9,0,7.4,0.3,11.7,4.3c1.2,1.2,2.3,2.5,3.1,3.9C237.1,14.3,234.5,15.7,234.5,15.7z M281.4,7l-14.2,11.5
	L282.2,37h-3.8L265,20.4l-9.9,8.1V37h-2.8V7h2.8v18.2L277.5,7L281.4,7L281.4,7z M328.4,7.6V37h-2.9l0-23.1c-0.4,0.3-1,0.7-1.5,0.9
	c-2.5,1.2-5.6,1.1-6.3,1.1v-2.4c0.4,0,1.1,0,2.1-0.1c2.3-0.3,4.4-1.1,5.6-3.2c0.4-0.6,0.6-1.2,1-2.6L328.4,7.6L328.4,7.6z
	 M354.7,11.2c-4.1,2.2-5.7,6.8-5.7,11.2c0,0.7,0,2.8,0.7,4.8c1.4,4.5,5.6,7.6,10.3,7.5c2.1,0,3.6-0.6,4.4-0.9
	c2.8-1.2,6.7-4.4,6.7-11.7c0-4-1.2-6.5-2.2-7.9c-0.5-0.7-1.1-1.3-1.7-1.9c-0.7-0.6-1.4-1.1-2.2-1.5c-1.6-0.8-3.4-1.2-5.3-1.1
	C359,9.9,356.9,10,354.7,11.2z M371.3,12.8c2,2.8,3,6.2,3,9.6c0,4.8-2,9.5-5.9,12.4c-2.5,1.8-5.4,2.7-8.5,2.7c-2,0-6.3-0.4-9.9-4.2
	c-2.1-2.3-3.5-5.2-3.9-8.2c0-0.5-0.2-1.4-0.2-2.6c0-3.1,0.9-6.6,2.6-9.1c0.9-1.4,3.4-4.4,7.9-5.5c1.7-0.4,2.9-0.4,3.5-0.5
	C362,7.2,367.6,7.7,371.3,12.8L371.3,12.8z M398.5,7.6V37h-2.9l0-23.1c-0.4,0.3-1,0.7-1.4,0.9c-2.5,1.2-5.6,1.1-6.3,1.1v-2.4
	c0.4,0,1.1,0,2.1-0.1c2.3-0.3,4.4-1.1,5.6-3.2c0.4-0.6,0.6-1.2,1-2.6L398.5,7.6L398.5,7.6z"/>
<path d="M106.8,56c-1.1-2.3-2.5-4.4-4.8-5.6c-0.5-0.2-0.7-0.5-0.4-1c0.1-0.2,0.2-0.5,0.1-0.8c-0.7-0.2-1.3-0.2-2-0.6
	c0.7-0.5,1.4-1,1.8-1.8c0.5-0.8,0.5-1.7,0.1-2.6c-0.3-0.6-1.1,0-1.4-0.7c0.7-0.5,1.6-0.6,2.4-1.1c-0.8-0.1-1.4-0.3-2.1-0.1
	c-0.6,0.2-1.2,0.8-1.8,0.7c-0.5-0.3-0.3-0.9-0.7-1.2c-0.3,1.5-0.2,1.7,1.4,2.2c-1.2,0.8-1.6,2.1-2.7,2.9c-1.2,0.8-2.4,1-3.9,0.3
	c0.7,0.9,1.5,1.3,2.2,2c-1.6,0.1-3.2-0.3-4.5-1.2c-3.1-1.7-5.2-4.4-7.1-7.2c-1.1-1.7-2-3.5-1-5.7c0.6-1.1,1-2.4,1-3.7
	c-0.2,0.2-0.3,0.4-0.4,0.4c-0.4,0.2-0.6,0.9-1.2,0.7c-0.6-0.3-0.4-0.9-0.4-1.4c0-1.6-0.2-3.1-1-4.5c-0.4-0.8-0.9-1.5-1.4-2.2
	c-0.3-0.5-0.2-0.8,0.3-1.2c2.1-1.7,4.5-1.6,7-1.1c2.1,0.5,4.2,0.7,6.3,0.2c2.8-0.6,4.6-2.7,3.3-5.6c-1-2.3-2.7-4-4.1-5.9
	c0,0-0.1,0-0.3,0c0.1,1.6-1.1,2.1-2.4,2.5c-1.4,0.5-2.8,0.9-4.2,1.5c-2.8,1.2-5.6,2.1-8.5,3.2c-3.4,1.3-6.7,2.7-9.5,4.9
	c-1.2,0.9-2.3,1.9-3.4,2.8c-0.4-0.3-0.7-0.7-0.9-1.1c-0.6-1.5-1.7-2.8-3.1-3.8c-3.2-2-6.9-3.3-10.6-3.8c-2.2-0.4-4.4-0.2-6.6-0.1
	c-5.3,0.2-10.4,1-15.2,3.2c-2.4,1.1-4.5,2.6-5.7,5c-0.8,1.4-1.8,2.5-3,3.5c-0.9,0.8-1.7,1.7-2.2,2.8c-0.9,1.9-0.9,4.2,0.2,6.1
	c-2.1,2-4.4,3.7-4.5,6.8c0.1-1.2,0.7-2.4,1.7-3.1c-0.3,1.7,0.6,3.6-0.8,5.2l-1-0.5c0.2,0.5-0.2,0.8-0.1,1.2c1,0.7,2.2,0.2,3.2,0.8
	c0,0.6-0.6,0.9-0.8,1.3c-0.4-0.1-0.4-0.6-0.8-0.6c-0.1,0.3-0.2,0.5,0.1,0.7c0.3,0.2,0.3,0.6,0.1,0.8c-0.8,0.7-0.8,1.8-1.2,2.7
	c1.1,0.7,1.2,1.2,0.5,2.2l0.3,0.2c0.4,0,0.5-0.5,0.8-0.5c1.5,0.5,1.7,2,2.3,3.1c0.3,0.5,0.2,1-0.5,1.4c-0.8,0.4-1.7,0-2.4,0.7
	c1.4,0.8,2.9,0.9,4.4,0.2c-0.2,1.6-0.8,2.6-2.1,3.2c0.9-0.2,1.9,0,2.7-0.5c0.9-0.5,1.5-1.3,1.7-2.3c0.9,0.9,1.6,1.7,2.5,2.3
	c0.5,0.3,0.3,0.8,0.2,1.2c-0.2,0.5-0.5,1-0.9,1.5c-0.2,0.2-0.7,0.4-0.5,1c1.5-0.6,1.9-2,2.7-3.1c0.2,1.1,0.1,2.1,0.1,3.2
	c0.4-0.2,0.8-0.3,1.2-0.2c1.9,0.4,2.7,0.1,3.7-1.5c0.2-0.4,0.3-0.9,0.8-1.3c0.5,1,1.4,1.3,2.2,1.9c0.1-0.6,1.1-0.4,1.2-1.2l-1.5,0.2
	c-0.4-0.5-0.8-1.1-0.8-2c1.1,0.8,2.2,0.5,3.4,0c-0.1-0.7,0.5-1.2,0.9-2c-0.8,0.5-1.5,0.7-1.8-0.4c1.2-0.4,2.5-0.7,3.7-1.4
	c0.3,0.3,0.5,0.6,0.5,1c0.4,1.6,0.8,3.2,1.1,4.9c0.3,1.6,0.3,3.3,0,4.9C38,72,36,74.5,34.3,77c-0.9,1.3-2,2.5-2.8,4l0,0
	c0.1,0,0.3,0,0.4-0.1c2.1-2.7,4.3-5.3,6-8.2c1.4-2.4,2.1-5,1.8-7.8c-0.2-1.9-0.3-4-1-5.8c-0.5-1.5,0-2.4,1.2-3
	c1-0.5,1.5-1.7,2.7-1.9c1.3,2.1,1.3,2.1,0.7,3c0.5,0.2,1,0,1.4,0l0.1,0.7c0.4-0.4,0.8-0.5,1.2-0.1c0,0,0.1,0.1,0.1,0.1
	c0.1,0.2,0.1,0.5-0.2,0.6c-0.9,0.6-1,1.6-1.2,2.5c-0.3,1.2-0.1,2.5,0.9,3.5c0.2,0.2,0.5,0.8,1.1,0.4c0-0.4-0.3-0.6-0.6-0.8
	c-0.8-0.6-0.9-1.4-0.4-2.1c0.5-0.7,1-1.6,1.8-1.9c0.5-0.2,0.6-1.2,1.5-0.8c-0.4,1.6-1,3-3,3.1c1,0.6,1.9,0.9,3,0.8
	c0.3,0,0.5-0.2,0.8,0c0.9,0.6,1.8,0.2,2.6-0.1c0.4-0.2,0.7-0.3,1.1-0.3c1.5,0.1,2.9-0.3,4.2-1.2c0.6-0.4,1.1-0.5,1.8-0.4
	c1.4,0.1,2.8-0.3,3.8-1.3c-0.7,0-1.1,0.5-1.7,0.2c0.8-0.9,1.3-2.1,2.9-1.8c0.5,0.1,1-0.2,1.4-0.5c0.2-0.2,0.7-0.4,0.3-0.9
	c-0.6,0.3-1.2,0.7-1.7-0.3c0.5,0.1,0.9,0,1.2,0.1c1.9,0.4,3.3-0.3,4.4-1.9c1.1-1.6,1-3.4,1-5.2l0.2-8c0.3-1.5,1.1-2.8,2.5-3.3
	c2.9-1,6.5,1.2,7.4,4.2c0.7,2.2,1.5,4.4,2.3,6.6c1.1,3.2,2.6,6.2,5,8.8c2.7,2.8,5.8,4.8,9.6,5.6c0.6,0.1,1.3,0.2,1.6-0.3
	c0.3-0.4,0.5-0.3,0.9-0.1c0.9,0.4,1.8,0.9,2.8,0.8c1,0,1.7,0.5,2.2,1.1c0.3,0.3,0.5,0.8,0.9,1.2c0.7-1,1.1-2.2,1.2-3.4
	C108,60.3,107.7,58,106.8,56z M94.5,15.7c0.7,0.7,1.1,1.7,0.9,2.8c-0.2,1-0.8,1.8-2.2,2C94.1,19,94.5,17.3,94.5,15.7z M39.5,42.6
	c0-2.2-0.8-4.2-1.9-6.2C39.1,37,40.1,40.2,39.5,42.6z M27.7,63.2c-0.2,0.9-1.1,1.6-2.8,1.8c0.9-1.4,1.3-3.1,1.2-4.7
	C27.2,60.8,27.8,62,27.7,63.2z M41.3,54.3c-0.9,0.6-1.7,1.4-2.7,2s-1.9,1.3-3,1.8c-2.2,1-4.5,1.4-6.9,1.3c-1-0.1-1.6-0.7-1.7-1.7
	c-0.1-0.5-0.1-1,0-1.5c0.1-1.1-0.1-1.8-1.4-1.7c-0.6,0-0.8-0.4-0.6-1c0.1-0.4,0.4-0.6,0.7-0.9c-1.7-1-1.8-1.2-1-2.9
	c0.2-0.4,0.2-0.7-0.4-0.9c-0.4-0.1-0.8-0.5-1.1-0.8c-1.3-0.9-1.3-1.1-0.2-2.3c0.4-0.4,0.7-0.9,1.1-1.3c1.6-1.9,0.8-3.8,0-5.7
	c-1.3-3.2-0.9-6.2,0.7-9.2c0.1-0.2,0.3-0.4,0.5-0.5c1.9-0.8,3.5-2,4.9-3.4c0.4,0.1,0.4,0.4,0.5,0.6c0.3,1.1,0.9,2.2,1.6,3.1
	c0.8,1,1.7,1.8,2.1,3.1c0.2,0.5,0.5,1,0.9,1.4c2.1,1.9,2.8,4.6,3.8,7.1c0.7,1.8,0,3.5-1,5.1c-0.2,0.3-0.4,0.5-0.4,0.9
	c2.2-0.2,1.5-2.4,2.5-3.4c-0.2,1.8-0.4,3.7-0.7,5.5c-0.2,1.6,0.5,3,0.8,4.5c0.1,0.7,0.7,0.3,1.1,0.1C41.6,53.8,41.5,54.1,41.3,54.3z
	 M45.8,60.4c0-0.8,0.3-1.5,0.9-2C47.2,59.4,46.5,59.9,45.8,60.4z M52.6,61.7c0.5-1.1,1.4-1.9,1.9-3.2c1.2,1,1.2,1,0.2,1.9
	C54.2,61,53.5,61.5,52.6,61.7z M54.8,61.9c0.9-0.7,1.5-1.5,2.7-1.6C56.9,61.3,56.3,61.7,54.8,61.9z M57.9,20.1
	c1.3,0.3,2,1.1,3.1,2.2C59.4,21.9,58.7,20.8,57.9,20.1z"/>
<path class="st2" d="M94.4,15.2c-0.2,0.2-0.2,0.3-0.1,0.4c0,0,0.1,0,0.2,0C94.7,15.4,94.5,15.3,94.4,15.2z"/>
<path d="M84.9,73.1c-0.5-2.1-0.1-5.2,1.2-9.3"/>
<path d="M77.1,39c-0.5,0-0.9,0-1.3,0c-1.9-0.2-3,0.9-3.3,2.7c-0.4,2.9,1.5,4.3,3.3,6c0.8,0.8,2,1,2.8,1.8c0.1,0.1,0.3,0.1,0.2,0.5
	c-1.1-0.2-2.1-0.6-3-1.2c-1-0.7-1.8-1.6-2.7-2.4c-1.8-1.7-2.1-4.6-0.6-6.6C73.6,38.3,75.4,38,77.1,39z"/>
<path d="M59.6,81c-0.9,0.4-0.9-0.4-1-0.9c-0.5-2.3-1.4-4.6-2.8-6.6c-0.8-1.2-1.8-2.4-2.7-3.6c-0.4-0.5-0.7-1.1-0.8-1.7
	C55.3,71.9,58.8,75.6,59.6,81z"/>
<path d="M94.7,31c-1-0.5-1.7-0.5-2.5,0.3c-0.6,0.6-1.5,1-2.3,1.4"/>
<path d="M2.2,1v115h115V1H2.2z M19.1,106.3c-0.4,1.9-1.9,3-3.7,3.2c-1.9,0.2-3.7,0-5.1-1.6c-0.8-1-0.9-2.1-1-3.2
	c-0.2-2.2,0-4.4,0-6.7h2.9v6.7c0,1.3,1,2.4,2.1,2.5c1.3,0.1,2.2-1,2.2-2.4V98h2.9C19.3,100.7,19.7,103.5,19.1,106.3z M39.5,109.2
	c-1.4,0.3-2.4,0.1-3.2-1.2c-1.2-1.9-2.7-3.6-4.2-5.5v6.8h-2.6v-5.7v-5.7c0.8,0,1.4-0.1,2.1,0c0.8,0.1,1,0.8,1.4,1.3
	c1.2,1.6,2.4,3.2,3.6,4.8c0.1,0.1,0.1,0.1,0.3,0.3v-6.3h2.6V109.2z M52.9,109.3h-2.7V98h2.7V109.3z M71.6,106.5
	c-0.2,1.3-1.1,2.3-2.3,2.7c-2.5,0.7-4.7,0.1-6.8-1.6l1.5-1.9c0.9,0.4,1.6,1.1,2.5,1.2c0.2,0,0.4,0.1,0.6,0.1
	c0.8,0.1,1.6-0.1,1.8-0.9c0.1-0.8-0.7-0.9-1.3-1.1c-1-0.3-2.1-0.7-3.1-1.1c-1-0.4-1.4-1.3-1.5-2.4c-0.1-1.2,0.2-2.3,1.2-3
	c1.8-1.3,5.1-0.8,6.7,0.3c0.4,0.3,0.3,0.5,0.1,0.9c-0.2,0.3-0.4,0.5-0.5,0.8c-0.4,0.6-0.7,0.9-1.4,0.3c-0.7-0.6-1.7-0.6-2.7-0.6
	c-0.4,0-0.7,0.3-0.8,0.6c-0.1,0.4,0.2,0.7,0.4,0.8c0.7,0.3,1.5,0.5,2.2,0.8c0.5,0.2,0.9,0.3,1.4,0.5
	C71.3,103.7,71.8,104.9,71.6,106.5z M90.2,109.2h-8.7v-5.7v-5.7H90v2.3h-5.8v2.2h5.1v2.4h-5.1v2h6V109.2z M110,109.3
	c-3.2,0.1-3.2,0.1-5.3-3.6c-0.6,0.9-1.3,1.7-1.8,2.7c-0.5,0.8-1,1.1-1.9,1c-0.5,0-1.1,0-1.8,0c0.9-1.8,2.2-3.3,3.2-4.8
	c0.5-0.7,0.5-1.1,0-1.8c-0.9-1.2-1.7-2.5-2.6-3.8c-0.2-0.3-0.4-0.7-0.5-1h2.7c0.3,0,0.5,0.2,0.7,0.5c0.6,1,1.2,1.9,1.9,2.9
	c0.8-0.6,1.2-1.4,1.6-2.2c0.5-1,1.2-1.3,2.2-1.2c0.5,0.1,1,0,1.5,0c-0.1,0.9-0.8,1.5-1.2,2.2c-0.6,0.9-1.2,1.9-1.9,2.7
	c-0.5,0.6-0.4,1,0,1.5l2.9,4.2c0.1,0.2,0.3,0.5,0.4,0.7L110,109.3z M114.7,92.6H4.8V3.2h109.9V92.6z"/>
</svg>
