<?xml version="1.0" encoding="utf-8"?>
<!-- Generator: Adobe Illustrator 23.0.0, SVG Export Plug-In . SVG Version: 6.00 Build 0)  -->
<svg version="1.1" id="Layer_1" xmlns="http://www.w3.org/2000/svg" xmlns:xlink="http://www.w3.org/1999/xlink" x="0px" y="0px"
	 viewBox="0 0 414.4 117" style="enable-background:new 0 0 414.4 117;" xml:space="preserve">
<style type="text/css">
	.st0{fill-rule:evenodd;clip-rule:evenodd;fill:none;}
	.st1{fill-rule:evenodd;clip-rule:evenodd;fill:#26292F;}
	.st2{fill:#262A30;}
	.st3{fill:#701E47;}
	.st4{fill:#FBF9FA;}
</style>
<rect class="st0" width="414.4" height="117"/>
<path class="st1" d="M157.3,87.7h-12.4V70.3h-5v39.8h5V92.7h12.4v17.4h5V70.3h-5L157.3,87.7L157.3,87.7z"/>
<path class="st1" d="M179.5,75.1c1.6,0,3.2,0.6,4.4,1.8c1.2,1.2,1.8,2.7,1.8,4.3v9.9h-12.4v-9.9c0-1.6,0.6-3.2,1.8-4.3
	C176.3,75.7,177.9,75.1,179.5,75.1z M179.5,70.1c-3,0-5.8,1.2-7.9,3.2c-2.1,2-3.3,4.9-3.3,7.9v28.9h5v-14h12.4v14h5V81.2
	c0-3-1.2-5.9-3.3-7.9C185.3,71.3,182.5,70.1,179.5,70.1z"/>
<path class="st1" d="M196.8,110.1h5V70.3h-5V110.1z"/>
<path class="st1" d="M212,75.3h4.3c1.6,0,3.2,0.7,4.4,1.8c1.2,1.2,1.8,2.8,1.8,4.5c0,1.7-0.6,3.2-1.8,4.4c-1.2,1.2-2.8,1.9-4.5,1.9
	H212V75.3z M227.6,81.6c0-3-1.1-5.8-3.2-7.9c-2.1-2.1-4.8-3.3-7.8-3.4h-9.6v39.8h5V92.9h4.4c0.1,0,0.2,0,0.3,0l7.8,17.2h5.6
	l-8.6-18.5C225.2,89.7,227.6,85.9,227.6,81.6z"/>
<path class="st1" d="M258.1,75.2h6.2c1.6,0,3.2,0.6,4.4,1.8c1.2,1.2,1.8,2.8,1.8,4.4v17.5c0,1.7-0.6,3.2-1.8,4.4
	c-1.2,1.2-2.7,1.9-4.4,1.9h-6.2V75.2z M264.3,70.2h-11.2v39.9h11.2c2.9,0,5.7-1.2,7.9-3.3c2.1-2,3.3-4.8,3.4-7.8V81.4
	c0-2.9-1.2-5.8-3.3-7.9C270.2,71.4,267.3,70.2,264.3,70.2z"/>
<path class="st1" d="M291.8,75.1c1.7,0,3.2,0.6,4.4,1.8c0.9,0.9,1.9,2.4,1.9,4.4v3h-12.5v-3c0-1.7,0.6-3.2,1.9-4.4
	C288.6,75.7,290.2,75.1,291.8,75.1z M291.8,70.1c-3,0-5.9,1.2-8,3.3c-2.1,2.1-3.3,4.9-3.3,8v18c0,3,1.2,5.8,3.3,8
	c2.1,2.1,4.9,3.3,8,3.3c3,0,5.9-1.2,8-3.3c2.1-2.1,3.3-4.9,3.3-8v-1h-5v1c0,1.6-0.7,3.2-1.9,4.4c-1.1,1.2-2.7,1.8-4.4,1.8
	c-1.7,0-3.2-0.7-4.4-1.9c-1.2-1.2-1.9-2.7-1.9-4.4v-10h17.5v-8c0-3-1.2-5.8-3.3-8C297.7,71.2,294.9,70.1,291.8,70.1z"/>
<path class="st1" d="M321.9,87.9c-1.5-0.7-2.9-1.3-4.1-2.1c-2.9-1.6-4-3-4-5v-0.3c0-3.3,2.3-5.6,5.5-5.6s5.3,2.2,5.3,5.5v0.7h5.1
	v-0.7c0-2.8-1.1-5.5-3.1-7.4c-2-1.9-4.6-3.1-7.4-3.1c-2.8,0-5.5,1.1-7.4,3.1c-2,2-3.1,4.7-3.1,7.5v0.3c0,1.9,0.5,3.5,1.4,4.8
	c1.5,2.1,4,3.8,7.6,5.4c1.5,0.6,2.8,1.3,4,2.1c2.8,1.7,4,3.5,4,5.9c0,1.7-0.7,3.2-2,4.5c-1.2,1.2-2.8,1.9-4.6,1.9
	c-1.7,0-3.3-0.7-4.5-1.9c-1.2-1.2-1.9-2.7-1.9-4.4v-1h-5v1c0,3.1,1.2,5.9,3.3,8c2.1,2.2,5,3.4,8,3.4c3,0,6-1.2,8.2-3.3
	c2.3-2.2,3.5-5,3.5-8c0-2-0.5-3.8-1.4-5.3C327.9,91.5,325.5,89.5,321.9,87.9z"/>
<path class="st1" d="M335.7,110.1h5V70.3h-5V110.1z"/>
<path class="st1" d="M357,70.1c-3,0-5.9,1.2-8,3.3c-2.1,2.1-3.3,4.9-3.3,8v18c0,3,1.2,5.8,3.3,8c2.1,2.1,4.9,3.3,8,3.3
	s5.9-1.2,8-3.3c2.1-2.1,3.3-4.9,3.3-8v-8h-12v5h7.1v3c0,1.6-0.7,3.2-1.9,4.4c-1.1,1.2-2.7,1.8-4.4,1.8c-1.7,0-3.2-0.6-4.4-1.9
	c-1.2-1.2-1.9-2.7-1.9-4.4v-18c0-1.7,0.6-3.2,1.9-4.4c1.2-1.2,2.7-1.8,4.4-1.8c1.7,0,3.2,0.6,4.4,1.8c0.9,0.9,1.9,2.4,1.9,4.4v1h5
	v-1c0-3-1.2-5.8-3.3-8C362.9,71.2,360.1,70.1,357,70.1z"/>
<path class="st1" d="M392.6,73.2c-2.1-2.1-4.9-3.3-8-3.3c-3,0-5.9,1.2-8,3.3c-2.1,2.1-3.3,4.9-3.3,8v29h5v-29c0-1.7,0.7-3.3,1.9-4.5
	c1.2-1.2,2.7-1.8,4.4-1.8c1.7,0,3.2,0.6,4.4,1.8c1.2,1.3,1.9,2.8,1.9,4.5v29h5v-29C395.9,78.1,394.7,75.3,392.6,73.2z"/>
<path class="st1" d="M400.7,54H136.9v-2h263.8V54z"/>
<path class="st1" d="M169.1,37h-2.7l-25.7-26.2V37h-2.7V7h2.7l25.7,26.3V7h2.7V37z"/>
<path class="st1" d="M189.6,7v30h-2.8V7H189.6z"/>
<path class="st1" d="M234.5,15.7c-0.3-0.4-1.1-2-2.3-3.2c-3.5-3.6-8.4-3.8-9.9-3.8c-1.7,0-6.5,0.3-10.2,4c-3.3,3.4-3.6,7.7-3.6,9.3
	c0,1.7,0.3,5.8,3.7,9.2c3.6,3.7,8.4,3.9,10.1,3.9c2,0,7.1-0.3,11-4.7c0.6-0.7,1-1.2,1.9-2.7l2.6,1.2c-0.7,1.2-1.9,3.4-4.7,5.4
	c-1.9,1.4-5.3,3.4-11,3.4c-5.5,0-8.6-1.7-10.5-3.1c-4.1-3-6.4-7.7-6.4-12.8c0-1.9,0.2-5.9,3.5-9.8c4.6-5.5,11-6,13.4-6
	c1.9,0,7.4,0.3,11.7,4.3c1.4,1.2,2.2,2.4,3.1,4L234.5,15.7z"/>
<path class="st1" d="M281.4,7l-14.2,11.5L282.2,37h-3.8L265,20.4l-9.9,8.1V37h-2.8V7h2.8v18.2L277.5,7C277.5,7,281.4,7,281.4,7z"/>
<path class="st1" d="M328.4,7.6V37h-2.9l0-23.1c-0.4,0.3-1,0.7-1.5,0.9c-2.5,1.2-5.6,1.1-6.3,1.1v-2.4c0.4,0,1.1,0,2.1-0.1
	c2.3-0.3,4.4-1.1,5.6-3.2c0.4-0.6,0.6-1.2,1-2.6H328.4z"/>
<path class="st1" d="M354.7,11.2c-4.1,2.2-5.7,6.8-5.7,11.2c0,0.7,0,2.8,0.7,4.8c1.5,4.5,5.5,7.5,10.3,7.5c2.1,0,3.6-0.6,4.4-0.9
	c2.8-1.2,6.7-4.4,6.7-11.7c0-4-1.2-6.5-2.2-7.9c-0.3-0.4-0.8-1.1-1.7-1.9c-0.9-0.8-1.8-1.3-2.2-1.5c-0.9-0.5-2.7-1.2-5.3-1.1
	C359,9.9,356.9,10,354.7,11.2z M371.3,12.8c1.1,1.4,3,4.8,3,9.6c0,4.8-2,9.5-5.9,12.4c-3.3,2.5-7.1,2.7-8.5,2.7
	c-2,0-6.3-0.4-9.9-4.2c-2.2-2.4-3.4-5.1-3.9-8.2c0-0.5-0.2-1.4-0.2-2.6c0-3.1,0.9-6.6,2.6-9.1c0.9-1.4,3.4-4.4,7.9-5.5
	c1.7-0.4,2.9-0.4,3.5-0.5C362,7.2,367.6,7.7,371.3,12.8z"/>
<path class="st1" d="M398.5,7.6V37h-2.9l0-23.1c-0.4,0.3-1,0.7-1.4,0.9c-2.5,1.2-5.6,1.1-6.3,1.1v-2.4c0.4,0,1.1,0,2.1-0.1
	c2.3-0.3,4.4-1.1,5.6-3.2c0.4-0.6,0.6-1.2,1-2.6H398.5z"/>
<g>
	<rect x="2.2" y="1" class="st2" width="115" height="115"/>
	<rect x="4.8" y="3.1" class="st3" width="109.9" height="89.5"/>
</g>
<g>
	<path class="st4" d="M71.1,49.4c0.1,1.8,0.1,3.6-1,5.2c-1.1,1.6-2.5,2.3-4.4,1.9c-0.3-0.1-0.7-0.1-1.2-0.1c0.5,1,1.1,0.7,1.7,0.3
		c0.3,0.5-0.1,0.7-0.3,0.9c-0.4,0.3-0.9,0.6-1.4,0.5c-1.6-0.3-2.1,0.9-2.9,1.8c0.5,0.3,0.9-0.2,1.7-0.2c-1.2,1.1-2.5,1.5-3.8,1.3
		c-0.7-0.1-1.2,0-1.8,0.4c-1.2,0.9-2.7,1.2-4.2,1.2c-0.4,0-0.8,0.1-1.1,0.3c-0.8,0.4-1.8,0.7-2.6,0.1c-0.3-0.2-0.5-0.1-0.8,0
		c-1,0.1-2-0.2-3-0.8c2-0.1,2.6-1.5,3-3.1c-0.8-0.4-0.9,0.6-1.5,0.8c-0.8,0.4-1.4,1.2-1.8,1.9c-0.5,0.7-0.3,1.5,0.4,2.1
		c0.3,0.2,0.6,0.4,0.6,0.8c-0.6,0.3-0.9-0.2-1.1-0.4c-1-1-1.2-2.3-0.9-3.5c0.2-0.9,0.3-1.9,1.2-2.5c0.2-0.1,0.3-0.5,0.1-0.7
		c-0.4-0.4-0.8-0.2-1.2,0.1c0-0.3,0-0.5-0.1-0.7c-0.5,0-0.9,0.2-1.4,0c0.7-0.9,0.7-0.9-0.7-3c-1.2,0.2-1.7,1.4-2.7,1.9
		c-1.2,0.7-1.7,1.5-1.2,3c0.7,1.8,0.8,3.8,1,5.8c0.2,2.8-0.5,5.4-1.8,7.8c-1.7,2.9-3.9,5.6-6,8.2C31.8,81,31.6,81,31.5,81l0,0
		c0.8-1.4,1.9-2.6,2.8-4c1.8-2.6,3.7-5.1,4.3-8.3c0.3-1.6,0.3-3.3,0-4.9c-0.3-1.6-0.8-3.2-1.2-4.9c-0.1-0.4-0.2-0.7-0.5-1
		c-1.1,0.7-2.4,1-3.7,1.4c0.3,1.1,1,0.9,1.8,0.4c-0.4,0.8-1,1.3-0.9,2c-1.2,0.4-2.3,0.8-3.4-0.1c0,0.9,0.4,1.4,0.8,2
		c0.5-0.1,1-0.1,1.5-0.2c0,0.8-1,0.6-1.2,1.2c-0.8-0.6-1.7-1-2.2-1.9c-0.5,0.3-0.5,0.9-0.8,1.3c-1,1.6-1.8,1.9-3.7,1.5
		c-0.4-0.1-0.8,0-1.2,0.2c0.1-1.1,0.2-2.1,0-3.2c-0.8,1.1-1.2,2.6-2.7,3.1c-0.2-0.6,0.3-0.8,0.5-1c0.4-0.4,0.7-1,0.9-1.5
		c0.2-0.4,0.3-0.9-0.1-1.2c-1-0.6-1.7-1.4-2.5-2.3c-0.3,1.1-0.9,1.8-1.7,2.3c-0.9,0.5-1.8,0.4-2.7,0.5c1.2-0.7,1.9-1.7,2.1-3.2
		c-1.6,0.7-3,0.7-4.4-0.2c0.7-0.7,1.7-0.3,2.4-0.7c0.7-0.4,0.8-0.9,0.5-1.4c-0.7-1.1-0.8-2.6-2.4-3.1c-0.4-0.1-0.4,0.5-0.9,0.5
		c-0.1-0.1-0.2-0.1-0.3-0.2c0.7-1,0.6-1.4-0.4-2.2c0.4-0.9,0.4-2,1.2-2.7c0.3-0.2,0.3-0.6-0.1-0.8c-0.3-0.2-0.2-0.5-0.1-0.7
		c0.4,0,0.4,0.5,0.8,0.6c0.2-0.4,0.8-0.7,0.8-1.3c-1-0.6-2.3-0.1-3.2-0.8c-0.1-0.4,0.3-0.7,0.1-1.2c0.5,0.3,0.7,0.4,0.9,0.5
		c1.4-1.6,0.5-3.5,0.8-5.2c-1,0.8-1.6,1.8-1.7,3.1c0.1-3.2,2.4-4.9,4.5-6.8c-1-1.9-1.2-4-0.2-6.1c0.5-1.1,1.3-2,2.2-2.8
		c1.2-1,2.3-2.1,3-3.5c1.3-2.4,3.4-3.9,5.7-5c4.8-2.1,9.9-3,15.2-3.2c2.2-0.1,4.4-0.2,6.6,0.1c2.5,0.4,4.9,1,7.2,2
		c1.2,0.5,2.3,1.1,3.4,1.8c1.5,1,2.3,2.3,3.1,3.8c0.2,0.4,0.5,0.8,0.9,1.1c1.1-0.9,2.2-1.9,3.4-2.8c2.9-2.2,6.2-3.6,9.5-4.9
		c2.8-1,5.7-1.9,8.5-3.2c1.3-0.6,2.8-1,4.2-1.5c1.3-0.4,2.5-0.9,2.4-2.6c0.2,0,0.3,0,0.3,0c1.4,2,3.1,3.7,4.1,5.9
		c1.3,2.9-0.5,5.1-3.3,5.6c-2.1,0.4-4.2,0.2-6.3-0.2c-2.4-0.5-4.8-0.6-7,1.1c-0.5,0.4-0.6,0.7-0.3,1.2c0.5,0.7,1,1.4,1.3,2.2
		c0.7,1.4,0.9,3,1,4.5c0,0.5-0.2,1.1,0.4,1.4c0.6,0.2,0.7-0.5,1.2-0.7c0.1,0,0.2-0.2,0.4-0.4c0.1,1.4-0.5,2.7-1,3.7
		c-1.1,2.3-0.1,4,1,5.7c1.9,2.9,4,5.5,7.1,7.2c1.4,0.8,2.8,1.3,4.5,1.2c-0.7-0.6-1.5-1.1-2.2-2c1.5,0.7,2.7,0.5,3.9-0.3
		c1.1-0.7,1.5-2.1,2.7-2.9c-1.5-0.5-1.6-0.6-1.4-2.2c0.4,0.3,0.2,0.9,0.7,1.2c0.6,0,1.1-0.5,1.8-0.7c0.7-0.2,1.3,0,2.1,0
		c-0.8,0.5-1.7,0.6-2.4,1.1c0.3,0.7,1.1,0.1,1.4,0.7c0.5,0.9,0.4,1.8-0.1,2.6c-0.4,0.8-1.1,1.2-1.8,1.8c0.7,0.4,1.4,0.4,2,0.6
		c0.1,0.3,0.1,0.5-0.1,0.8c-0.3,0.5-0.1,0.8,0.4,1c2.3,1.3,3.7,3.3,4.8,5.6c1,2.1,1.2,4.3,0.8,6.6c-0.2,1.1-0.4,2.3-1.2,3.4
		c-0.3-0.4-0.5-0.8-0.9-1.2c-0.6-0.6-1.3-1.1-2.2-1.1s-1.9-0.4-2.8-0.8c-0.3-0.2-0.6-0.3-0.9,0.1c-0.4,0.5-1.1,0.4-1.6,0.3
		c-3.8-0.8-6.9-2.8-9.6-5.6c-2.4-2.5-3.9-5.5-5-8.8c-0.8-2.2-1.6-4.4-2.3-6.6c-0.9-3-4.5-5.2-7.4-4.2c-1.4,0.5-2.2,1.8-2.5,3.3"/>
	<path class="st3" d="M25.6,52.5c-0.2,0.3-0.5,0.5-0.7,0.9c-0.2,0.6,0,1,0.6,1c1.3-0.1,1.5,0.7,1.5,1.7c0,0.5,0,1,0,1.5
		c0.1,1,0.7,1.6,1.7,1.7c2.4,0.2,4.7-0.3,6.9-1.3c1.1-0.5,2-1.2,3-1.8c1-0.5,1.8-1.3,2.7-2c0.2-0.2,0.3-0.5,0-0.8
		c-0.4,0.1-1,0.5-1.1-0.1c-0.3-1.5-1.1-2.9-0.8-4.5c0.3-1.8,0.5-3.7,0.7-5.5c-1,1-0.3,3.2-2.5,3.4c0-0.4,0.3-0.6,0.4-0.9
		c1-1.6,1.7-3.3,1-5.1c-0.9-2.5-1.7-5.2-3.8-7.1c-0.4-0.4-0.8-0.9-0.9-1.4c-0.4-1.3-1.3-2.2-2.1-3.1c-0.8-0.9-1.3-1.9-1.6-3.1
		c-0.1-0.2,0-0.5-0.5-0.6c-1.4,1.5-3,2.6-4.9,3.4c-0.3,0.1-0.4,0.2-0.5,0.5c-1.6,3-2,6-0.7,9.2c0.8,1.9,1.6,3.8,0,5.7
		c-0.4,0.5-0.7,0.9-1.1,1.3c-1.1,1.2-1.1,1.4,0.2,2.3c0.4,0.3,0.7,0.7,1.1,0.8c0.6,0.2,0.5,0.5,0.4,0.9
		C23.8,51.3,23.9,51.6,25.6,52.5z"/>
	<path class="st4" d="M24.9,65c1.7-0.2,2.6-0.8,2.8-1.8c0.2-1.1-0.5-2.4-1.6-3C26.2,61.9,25.8,63.4,24.9,65z"/>
	<path class="st4" d="M93.3,20.4c1.4-0.2,2-1,2.2-2c0.2-1-0.1-2-0.9-2.8C94.5,17.3,94.2,18.9,93.3,20.4z"/>
	<path class="st3" d="M37.6,36.4c1.2,2,1.9,4,1.9,6.2C40.1,40.2,39.1,37,37.6,36.4z"/>
	<path class="st3" d="M54.5,58.5c-0.5,1.2-1.4,2.1-1.9,3.2c0.9-0.2,1.5-0.7,2.1-1.3C55.7,59.5,55.7,59.5,54.5,58.5z"/>
	<path class="st4" d="M57.9,20.1c0.9,0.8,1.5,1.8,3.1,2.2C59.9,21.2,59.1,20.3,57.9,20.1z"/>
	<path class="st4" d="M54.9,61.9c1.4-0.2,2.1-0.6,2.7-1.6C56.3,60.4,55.7,61.2,54.9,61.9z"/>
	<path class="st3" d="M45.8,60.4c0.7-0.5,1.4-1,0.9-2C46.1,59,45.8,59.6,45.8,60.4z"/>
	<path class="st4" d="M94.4,15.2c-0.2,0.2-0.2,0.3-0.1,0.4c0,0,0.1,0,0.2,0C94.7,15.4,94.5,15.3,94.4,15.2z"/>
	<path class="st4" d="M84.9,73.1c-0.5-2.1-0.1-5.2,1.2-9.3"/>
	<path class="st4" d="M77.1,39c-0.5,0-0.9,0-1.3,0c-1.9-0.2-3,0.9-3.3,2.7c-0.4,2.9,1.5,4.3,3.3,6c0.8,0.8,2,1,2.8,1.8
		c0.1,0.1,0.3,0.1,0.2,0.5c-1.1-0.3-2.1-0.6-3-1.2c-1-0.7-1.8-1.6-2.7-2.4c-1.8-1.7-2.1-4.6-0.6-6.6C73.6,38.3,75.5,38,77.1,39z"/>
	<path class="st4" d="M59.6,81c-0.9,0.4-0.9-0.4-1-0.9c-0.5-2.3-1.4-4.6-2.8-6.6c-0.8-1.2-1.8-2.4-2.7-3.6c-0.5-0.6-0.7-1.2-0.8-1.7
		C55.3,71.9,58.8,75.6,59.6,81z"/>
	<path class="st4" d="M94.7,31c-1-0.5-1.7-0.5-2.5,0.3c-0.6,0.6-1.5,1-2.3,1.4"/>
</g>
<g>
	<path class="st4" d="M32.1,102.5c0,2.4,0,4.6,0,6.8c-0.9,0-1.7,0-2.6,0c0-1.9,0-3.8,0-5.7c0-1.9,0-3.7,0-5.7c0.8,0,1.4-0.1,2.1,0
		c0.8,0.1,1,0.8,1.4,1.3c1.2,1.6,2.4,3.2,3.6,4.8c0.1,0.1,0.2,0.1,0.3,0.3c0-2.2,0-4.2,0-6.3c0.9,0,1.7,0,2.6,0c0,3.8,0,7.5,0,11.3
		c-1.4,0.3-2.4,0.1-3.2-1.2C35.1,106.1,33.6,104.4,32.1,102.5z"/>
	<path class="st4" d="M81.5,97.9c2.9,0,5.7,0,8.5,0c0,0.8,0,1.5,0,2.3c-1.9,0-3.8,0-5.8,0c0,0.8,0,1.4,0,2.2c1.7,0,3.4,0,5.1,0
		c0,0.8,0,1.6,0,2.4c-1.7,0-3.4,0-5.1,0c0,0.7,0,1.3,0,2c2,0,4,0,6,0c0,0.8,0,1.6,0,2.4c-2.9,0-5.7,0-8.7,0c0-1.9,0-3.8,0-5.7
		C81.5,101.7,81.5,99.9,81.5,97.9z"/>
	<path class="st4" d="M9.3,97.9c1,0,1.9,0,2.9,0c0,2.3,0,4.5,0,6.7c0,1.3,0.9,2.4,2.1,2.5c1.3,0.1,2.2-1,2.2-2.4c0-2.2,0-4.4,0-6.7
		c1,0,1.9,0,2.9,0c-0.1,2.8,0.3,5.6-0.3,8.3c-0.4,1.9-1.9,3-3.7,3.2c-1.9,0.2-3.7,0-5.1-1.7c-0.8-1-0.9-2.1-1-3.2
		C9.2,102.4,9.3,100.2,9.3,97.9z"/>
	<path class="st4" d="M99.3,109.3c0.9-1.8,2.2-3.3,3.2-4.8c0.4-0.7,0.5-1.1,0.1-1.8c-0.9-1.2-1.7-2.5-2.6-3.8
		c-0.2-0.3-0.4-0.6-0.5-1c0.9,0,1.8,0,2.7,0c0.3,0,0.5,0.2,0.7,0.4c0.6,1,1.2,1.9,1.9,2.9c0.8-0.6,1.2-1.4,1.6-2.2
		c0.5-0.9,1.2-1.3,2.2-1.2c0.5,0.1,0.9,0,1.5,0c-0.1,0.9-0.8,1.6-1.2,2.2c-0.6,0.9-1.2,1.9-1.9,2.7c-0.5,0.6-0.4,1,0,1.5
		c1,1.4,1.9,2.8,2.9,4.2c0.2,0.2,0.3,0.5,0.4,0.7c-0.1,0-0.1,0.1-0.2,0.1c-3.2,0.1-3.2,0.1-5.3-3.6c-0.6,0.9-1.3,1.7-1.8,2.7
		c-0.4,0.8-1.1,1.1-1.9,1C100.5,109.3,100,109.3,99.3,109.3z"/>
	<path class="st4" d="M62.5,107.6c0.6-0.7,1-1.3,1.5-1.9c0.9,0.4,1.6,1.1,2.5,1.2c0.2,0,0.4,0.1,0.6,0.1c0.8,0.1,1.6-0.1,1.8-0.9
		c0.1-0.8-0.7-0.9-1.3-1.1c-1-0.3-2.1-0.7-3.1-1.1c-1-0.4-1.4-1.3-1.5-2.4c-0.1-1.2,0.2-2.3,1.2-3c1.8-1.3,5.1-0.8,6.7,0.3
		c0.4,0.3,0.3,0.6,0.2,0.9c-0.2,0.3-0.4,0.5-0.6,0.8c-0.4,0.6-0.7,0.9-1.4,0.3c-0.7-0.6-1.7-0.6-2.7-0.6c-0.4,0-0.7,0.3-0.8,0.6
		c-0.2,0.4,0.2,0.7,0.4,0.8c0.7,0.3,1.5,0.5,2.2,0.8c0.5,0.2,0.9,0.3,1.4,0.5c1.6,0.7,2.1,1.9,1.9,3.6c-0.1,1.1-1.1,2.4-2.3,2.7
		C66.8,109.9,64.6,109.4,62.5,107.6z"/>
	<path class="st4" d="M52.9,109.3c-1,0-1.8,0-2.7,0c0-3.8,0-7.5,0-11.3c0.9,0,1.8,0,2.7,0C52.9,101.7,52.9,105.4,52.9,109.3z"/>
</g>
</svg>
