<svg xmlns="http://www.w3.org/2000/svg" width="69.2" height="69.4" viewBox="0 0 69.2 69.4"><path d="M51.5 27.1c-2-1.7-4.2-3.4-6.3-5.2-2.8-2.4-3.1-3.2-1.7-6.5C45.2 11.2 47 7.1 48.8 3 50.2-.1 50.9-.4 54.3.3c3.6.7 7.2 1.6 10.7 2.4 3.9 1 4.3 1.5 4.2 5.5-.2 10.9-3.1 21.1-8.9 30.3-11.2 17.9-27.4 28.3-48.5 30.6-.2 0-.3 0-.5.1-7.1.7-7.6.3-9.2-6.5-.7-2.9-1.3-5.8-2-8.8-.6-2.5.2-4.2 2.6-5.2 4.3-1.8 8.6-3.6 12.9-5.5 2.3-1.1 4.2-.6 5.7 1.4 1.8 2.2 3.6 4.4 5.4 6.5 8.4-1 21-13.2 24.8-24z" fill="#a72519"/></svg>